<svg width="24" height="24" viewBox="0 0 24 24" fill="none" xmlns="http://www.w3.org/2000/svg">
<path d="M12.293 19L8 23.293L7.30469 22.5977L9.53027 20.3516L10.374 19.5H1.5V18.5H10.374L9.53027 17.6484L7.30469 15.4014L8 14.707L12.293 19ZM7.5 2.5V4.5H16.5V2.5H17.5V4.5H19C19.4162 4.5 19.7605 4.64234 20.0596 4.94141C20.3578 5.23963 20.5 5.58354 20.5 6V20C20.5 20.3643 20.3912 20.6735 20.1641 20.9453L20.0596 21.0596C19.7606 21.3579 19.4163 21.5 19 21.5H15.5V20.5H19.5V9.5H4.5V13.5H3.5V6C3.5 5.58354 3.64221 5.23963 3.94043 4.94141C4.2395 4.64234 4.58379 4.5 5 4.5H6.5V2.5H7.5ZM4.5 8.5H19.5V5.5H4.5V8.5Z" fill="#80B9AD" stroke="white"/>
</svg>
