<svg width="64" height="64" viewBox="0 0 64 64" fill="none" xmlns="http://www.w3.org/2000/svg">
<path opacity="0.6" d="M62.8956 47.7617C62.7468 47.2799 62.4102 46.8782 61.9617 46.6476L56.0011 43.5815V25.7179C56.0011 24.6824 55.1616 23.8429 54.1261 23.8429H50.3925V17.0575C50.3925 16.022 49.553 15.1825 48.5175 15.1825H38.5095V1.875C38.5095 0.8395 37.67 0 36.6345 0H27.3655C26.33 0 25.4905 0.8395 25.4905 1.875V15.1825H15.4825C14.447 15.1825 13.6075 16.022 13.6075 17.0575V23.8427H9.87372C8.83822 23.8427 7.99872 24.6822 7.99872 25.7177V43.5814L2.03809 46.6475C1.58959 46.8781 1.25309 47.2797 1.10422 47.7616C0.955465 48.2434 1.00697 48.7649 1.24734 49.2082L8.73296 63.0182C9.06084 63.623 9.69359 63.9997 10.3815 63.9997H53.6185C54.3063 63.9997 54.939 63.623 55.267 63.0182L62.7526 49.2082C62.9928 48.7651 63.0443 48.2436 62.8956 47.7617ZM34.7595 3.75V7.53H29.2405V3.75H34.7595ZM29.2405 11.28H34.7595V15.1826H29.2405V11.28ZM17.3573 18.9325H46.6425V23.8427H17.3573V18.9325ZM11.7487 27.5929H52.2512V41.6525L32.8577 31.6762C32.3193 31.3992 31.6807 31.3992 31.1423 31.6762L11.7487 41.6525V27.5929ZM5.45722 49.1059L30.125 36.4166V60.25H11.4978L5.45722 49.1059ZM52.5021 60.25H33.875V36.4166L58.5427 49.1059L52.5021 60.25Z" fill="black"/>
</svg>
