<svg width="65" height="64" viewBox="0 0 65 64" fill="none" xmlns="http://www.w3.org/2000/svg">
<g opacity="0.6" clip-path="url(#clip0_1145_1730)">
<path d="M63.0914 36.6042L58.0331 30.7051C56.808 29.2764 55.026 28.457 53.1439 28.457H35.1124L28.6626 22.5234C28.3165 22.2051 27.8634 22.0283 27.3932 22.0283H18.842C18.163 22.0283 17.5373 22.3953 17.2058 22.9878C16.8743 23.5803 16.8889 24.3056 17.2442 24.8842L19.4377 28.457H14.5641L9.59881 18.8248C9.27719 18.2009 8.63421 17.809 7.93224 17.809H2.37493C1.33947 17.809 0.5 18.6484 0.5 19.6839V32.4694C0.5 40.0354 6.65541 46.1908 14.2213 46.1908H58.6835C60.9788 46.1908 63.0003 44.8954 63.9591 42.81C64.918 40.7245 64.5856 38.3466 63.0914 36.6042ZM55.1866 33.1462L57.4748 35.8147H54.9662C52.6013 35.8147 50.5815 34.3095 49.814 32.207H53.1439C53.9302 32.207 54.6747 32.5492 55.1866 33.1462ZM26.662 25.7783L36.0588 34.4229H27.5007L22.1932 25.7783H26.662ZM4.24987 21.559H6.78928L10.3453 28.4571H4.24987V21.559ZM60.5523 41.2434C60.2074 41.9932 59.5088 42.441 58.6835 42.441H14.2213C8.72309 42.441 4.24987 37.9677 4.24987 32.4696V32.207H13.4212H21.74L24.8539 37.2789C25.195 37.8344 25.8 38.1729 26.4517 38.1729H40.8661C41.6387 38.1729 42.3322 37.6989 42.6129 36.9792C42.8936 36.2594 42.7041 35.4411 42.1355 34.9181L39.1885 32.2071H45.9254C46.7942 36.4021 50.5176 39.5647 54.9662 39.5647H60.3023C60.392 39.5647 60.4796 39.5562 60.5661 39.5439C60.8108 40.0754 60.8114 40.6797 60.5523 41.2434Z" fill="black"/>
</g>
<defs>
<clipPath id="clip0_1145_1730">
<rect width="64" height="64" fill="white" transform="translate(0.5)"/>
</clipPath>
</defs>
</svg>
