<svg width="65" height="64" viewBox="0 0 65 64" fill="none" xmlns="http://www.w3.org/2000/svg">
<g clip-path="url(#clip0_1145_1739)">
<g opacity="0.6">
<path d="M62.625 9.42275H56.803C55.9635 4.09088 51.3374 0 45.7735 0H19.2266C13.6626 0 9.0365 4.09088 8.19713 9.42275H2.375C1.3395 9.42275 0.5 10.2622 0.5 11.2978V22.6513C0.5 23.6868 1.3395 24.5263 2.375 24.5263C3.4105 24.5263 4.25 23.6868 4.25 22.6513V13.1728H8.06063V52.7475C7.09963 52.8283 6.3445 53.6326 6.3445 54.6145C6.3445 55.65 7.184 56.4895 8.2195 56.4895H12.0317V62.125C12.0317 63.1605 12.8713 64 13.9067 64H22.8691C23.9046 64 24.7441 63.1605 24.7441 62.125V56.4895H40.2559V62.125C40.2559 63.1605 41.0954 64 42.1309 64H51.0933C52.1288 64 52.9683 63.1605 52.9683 62.125V56.4895H56.7805C57.816 56.4895 58.6555 55.65 58.6555 54.6145C58.6555 53.6326 57.9004 52.8283 56.9394 52.7475V13.1728H60.75V22.6513C60.75 23.6868 61.5895 24.5263 62.625 24.5263C63.6605 24.5263 64.5 23.6868 64.5 22.6513V11.2978C64.5 10.2622 63.6605 9.42275 62.625 9.42275ZM11.8106 52.7395V48.6203H20.6634C21.6989 48.6203 22.5384 47.7808 22.5384 46.7453C22.5384 41.879 18.6095 37.92 13.7805 37.92H11.8106V33.8019H53.1893V37.8081H51.2194C46.3903 37.8081 42.4615 41.7671 42.4615 46.6334C42.4615 47.6602 43.2875 48.4961 44.3144 48.5083L53.1893 48.6131V52.7396L11.8106 52.7395ZM11.8106 41.67H13.7805C15.8888 41.67 17.6969 42.997 18.4342 44.8703H11.8106V41.67ZM53.1894 44.8628L46.5556 44.7845C47.2865 42.8974 49.1015 41.5581 51.2196 41.5581H53.1895L53.1894 44.8628ZM19.2266 3.75H45.7735C49.8626 3.75 53.1894 7.07675 53.1894 11.1659V30.0519H11.8106V11.1659C11.8106 7.07675 15.1375 3.75 19.2266 3.75ZM20.9941 60.25H15.7817V56.4895H20.9941V60.25ZM49.2183 60.25H44.0059V56.4895H49.2183V60.25Z" fill="black"/>
</g>
</g>
<defs>
<clipPath id="clip0_1145_1739">
<rect width="64" height="64" fill="white" transform="translate(0.5)"/>
</clipPath>
</defs>
</svg>
