<svg width="26" height="18" viewBox="0 0 26 18" fill="none" xmlns="http://www.w3.org/2000/svg">
<path d="M8.07617 0.250061C12.383 0.250197 15.8748 4.00279 15.875 8.6319C15.875 13.2612 12.3831 17.0146 8.07617 17.0147C3.76913 17.0147 0.277344 13.2613 0.277344 8.6319C0.277525 4.0027 3.76924 0.250061 8.07617 0.250061Z" fill="#ED0006"/>
<path d="M18.1934 0.250061C22.5002 0.250196 25.992 4.00279 25.9922 8.6319C25.9922 13.2612 22.5003 17.0146 18.1934 17.0147C13.8863 17.0147 10.3945 13.2613 10.3945 8.6319C10.3947 4.0027 13.8864 0.250061 18.1934 0.250061Z" fill="#2F80ED"/>
<path d="M13.1338 2.25537C14.81 3.79281 15.875 6.07823 15.875 8.63232C15.875 11.1862 14.8097 13.4709 13.1338 15.0083C11.4583 13.4709 10.3945 11.1858 10.3945 8.63232C10.3945 6.07864 11.4581 3.79281 13.1338 2.25537Z" fill="#6C6BBD"/>
</svg>
