<svg width="20" height="21" viewBox="0 0 20 21" fill="none" xmlns="http://www.w3.org/2000/svg">
<g clip-path="url(#clip0_1154_1860)">
<path d="M17.5 8.36572C17.5 14.1991 10 19.1991 10 19.1991C10 19.1991 2.5 14.1991 2.5 8.36572C2.5 6.3766 3.29018 4.46894 4.6967 3.06242C6.10322 1.6559 8.01088 0.865723 10 0.865723C11.9891 0.865723 13.8968 1.6559 15.3033 3.06242C16.7098 4.46894 17.5 6.3766 17.5 8.36572Z" stroke="black" stroke-width="2" stroke-linecap="round" stroke-linejoin="round"/>
<path d="M10 10.8657C11.3807 10.8657 12.5 9.74643 12.5 8.36572C12.5 6.98501 11.3807 5.86572 10 5.86572C8.61929 5.86572 7.5 6.98501 7.5 8.36572C7.5 9.74643 8.61929 10.8657 10 10.8657Z" stroke="black" stroke-width="2" stroke-linecap="round" stroke-linejoin="round"/>
</g>
<defs>
<clipPath id="clip0_1154_1860">
<rect width="20" height="20" fill="white" transform="translate(0 0.0322266)"/>
</clipPath>
</defs>
</svg>
