<svg width="28" height="18" viewBox="0 0 28 18" fill="none" xmlns="http://www.w3.org/2000/svg">
<path d="M19.1875 0.287537C23.5931 0.287684 27.1641 4.03724 27.1641 8.66254C27.1641 13.2878 23.5931 17.0374 19.1875 17.0375C17.2122 17.0375 15.4059 16.2821 14.0127 15.0336C12.6196 16.2819 10.8139 17.0375 8.83887 17.0375C4.43314 17.0375 0.861328 13.2879 0.861328 8.66254C0.861328 4.03715 4.43314 0.287537 8.83887 0.287537C10.8137 0.287602 12.6196 1.04248 14.0127 2.29047C15.4059 1.04229 17.2124 0.287537 19.1875 0.287537Z" fill="#ED0006"/>
<path d="M19.1875 0.287537C23.593 0.287776 27.1641 4.0373 27.1641 8.66254C27.1641 13.2878 23.593 17.0373 19.1875 17.0375C17.2123 17.0375 15.4059 16.282 14.0127 15.0336C15.7271 13.4975 16.8154 11.2143 16.8154 8.66254C16.8154 6.11055 15.7274 3.82659 14.0127 2.29047C15.4058 1.04233 17.2125 0.287537 19.1875 0.287537Z" fill="#F9A000"/>
<path d="M14.0127 2.29022C15.7274 3.8263 16.8154 6.11034 16.8154 8.66229C16.8154 11.214 15.727 13.4973 14.0127 15.0334C12.2985 13.4973 11.21 11.2138 11.21 8.66229C11.21 6.11048 12.2981 3.82629 14.0127 2.29022Z" fill="#FD6020"/>
</svg>
