<svg width="28" height="27" viewBox="0 0 28 27" fill="none" xmlns="http://www.w3.org/2000/svg">
<g id="calendar-month-outline">
<path id="Vector" d="M8.16667 14.9741H10.5V17.2241H8.16667V14.9741ZM24.5 8.22412V23.9741C24.5 24.5709 24.2542 25.1432 23.8166 25.5651C23.379 25.9871 22.7855 26.2241 22.1667 26.2241H5.83333C4.53833 26.2241 3.5 25.2116 3.5 23.9741V8.22412C3.5 7.62738 3.74583 7.05509 4.18342 6.63313C4.621 6.21117 5.21449 5.97412 5.83333 5.97412H7V3.72412H9.33333V5.97412H18.6667V3.72412H21V5.97412H22.1667C22.7855 5.97412 23.379 6.21117 23.8166 6.63313C24.2542 7.05509 24.5 7.62738 24.5 8.22412ZM5.83333 10.4741H22.1667V8.22412H5.83333V10.4741ZM22.1667 23.9741V12.7241H5.83333V23.9741H22.1667ZM17.5 17.2241V14.9741H19.8333V17.2241H17.5ZM12.8333 17.2241V14.9741H15.1667V17.2241H12.8333ZM8.16667 19.4741H10.5V21.7241H8.16667V19.4741ZM17.5 21.7241V19.4741H19.8333V21.7241H17.5ZM12.8333 21.7241V19.4741H15.1667V21.7241H12.8333Z" fill="#2D3748" fill-opacity="0.32"/>
</g>
</svg>
