<svg width="36" height="18" viewBox="0 0 36 18" fill="none" xmlns="http://www.w3.org/2000/svg">
<path d="M16.6367 18L35.6367 12.25V15C35.6367 16.6569 34.2936 18 32.6367 18H16.6367Z" fill="#FD6020"/>
<path d="M13.3242 0.388691C13.7546 0.388691 14.2463 0.45604 14.6152 0.724628V2.0674C14.3078 1.66457 13.816 1.39553 13.3242 1.39553C12.3405 1.46273 11.5412 2.40316 11.6025 3.47756V3.61232C11.6026 4.68673 12.402 5.49216 13.3857 5.49221C13.8775 5.49221 14.3078 5.22405 14.6152 4.82131V6.16408C14.1849 6.36549 13.7545 6.50002 13.2627 6.50002C11.7256 6.49992 10.4961 5.08909 10.4961 3.41018C10.4963 1.66431 11.7257 0.254457 13.3242 0.388691ZM22.9775 4.41799L24.4541 0.388691H25.5605L23.2852 6.50002H22.7324L20.457 0.388691H21.5635L22.9775 4.41799ZM8.40527 0.253925C8.95861 0.253925 9.51198 0.52291 9.94238 0.9258L9.38965 1.73146C9.1437 1.46283 8.83576 1.26174 8.52832 1.26174C8.15939 1.19458 7.85153 1.53066 7.79004 1.93361C7.79018 2.26912 7.97521 2.40337 8.58984 2.67189C9.81954 3.20914 10.127 3.61216 10.1885 4.41799V4.61916C10.127 5.6937 9.32756 6.49979 8.34375 6.43264C7.60594 6.43259 6.86793 6.02974 6.49902 5.29103L7.17578 4.55275C7.3603 5.02263 7.79051 5.35834 8.28223 5.35842H8.34375C8.71265 5.35842 9.08197 4.95543 9.08203 4.48537C9.08203 4.21679 8.95882 4.0152 8.77441 3.88088C8.52846 3.74656 8.28208 3.6121 8.03613 3.54494C7.05272 3.20921 6.74521 2.7392 6.74512 1.93361V1.86623C6.8066 0.926051 7.54449 0.186843 8.40527 0.253925ZM2.01074 0.388691C3.48641 0.455901 4.65426 1.79938 4.59277 3.41115C4.59267 4.28408 4.22417 5.09001 3.60938 5.69436C3.056 6.16443 2.37947 6.43338 1.70312 6.36623H0.166016V0.388691H2.01074ZM6.06836 6.36623H5.02344V0.388691H6.06836V6.36623ZM29.0039 1.3965H27.0977V2.73928H28.9424V3.74709H27.0977V5.35842H29.0039V6.36623H26.0527V0.388691H29.0039V1.3965ZM31.2168 0.388691C32.4465 0.388691 33.123 0.993108 33.123 2.13478C33.1845 3.00773 32.6313 3.74641 31.8936 3.88088L33.5537 6.36623H32.2617L30.8477 3.94826H30.7246V6.36623H29.6797V0.388691H31.2168ZM1.51855 1.3965H1.21094V5.35842H1.51855C2.01036 5.4255 2.56373 5.22438 2.93262 4.88869C3.30154 4.48575 3.48632 3.94818 3.48633 3.34377C3.48632 2.80652 3.30153 2.26917 2.93262 1.86623C2.56372 1.53048 2.01041 1.3294 1.51855 1.3965ZM30.7246 3.1426H31.0322C31.7084 3.14254 32.0155 2.8064 32.0156 2.20217C32.0156 1.66495 31.7085 1.32918 31.0322 1.32912H30.7246V3.1426Z" fill="#333333"/>
<path fill-rule="evenodd" clip-rule="evenodd" d="M17.7513 0.25C16.2141 0.25 14.9229 1.59317 14.9229 3.3393C14.9229 5.01827 16.1526 6.4286 17.7513 6.49576C19.35 6.56292 20.5797 5.15258 20.6412 3.40646C20.5797 1.66033 19.35 0.25 17.7513 0.25V0.25Z" fill="#FD6020"/>
</svg>
