<svg width="14" height="14" viewBox="0 0 14 14" fill="none" xmlns="http://www.w3.org/2000/svg">
<path d="M6.99902 0.599609C8.73741 0.59961 8.95506 0.607607 9.6377 0.638672C10.3189 0.669891 10.7844 0.777303 11.1924 0.935547C11.6136 1.09887 11.9693 1.3179 12.3252 1.67383C12.6812 2.02957 12.9005 2.38668 13.0645 2.80762C13.2217 3.2144 13.3293 3.6794 13.3613 4.36035C13.392 5.04303 13.4004 5.26185 13.4004 7C13.4004 8.73751 13.392 8.95538 13.3613 9.6377C13.3293 10.3187 13.2218 10.7844 13.0645 11.1914C12.9005 11.6122 12.6812 11.9695 12.3252 12.3252C11.9697 12.6811 11.6131 12.9 11.1924 13.0635C10.7852 13.2217 10.3198 13.3301 9.63867 13.3613C8.95601 13.3924 8.73819 13.3994 7 13.3994C5.2621 13.3994 5.04389 13.3924 4.36133 13.3613C3.68012 13.3301 3.21482 13.2217 2.80762 13.0635C2.38697 12.9 2.02941 12.6812 1.67383 12.3252C1.3181 11.9696 1.10009 11.6122 0.936523 11.1914C0.778388 10.7845 0.670006 10.319 0.638672 9.6377C0.607751 8.95528 0.600587 8.73762 0.600586 7C0.600586 5.26185 0.608138 5.04303 0.638672 4.36035C0.669341 3.67967 0.776998 3.21453 0.935547 2.80762C1.09955 2.38682 1.31881 2.02956 1.6748 1.67383C2.03054 1.31796 2.38766 1.09902 2.80859 0.935547C3.2154 0.777354 3.68033 0.669892 4.36133 0.638672C5.04378 0.607615 5.26241 0.599614 6.99902 0.599609Z" fill="white"/>
<path d="M6.42676 1.75391C6.59709 1.75364 6.78749 1.75391 7.00098 1.75391C8.70947 1.75391 8.91215 1.75937 9.58691 1.79004C10.2108 1.81858 10.5498 1.92315 10.7754 2.01074C11.0739 2.12672 11.2869 2.26532 11.5107 2.48926C11.7347 2.71325 11.873 2.92692 11.9893 3.22559C12.0768 3.45088 12.1815 3.78936 12.21 4.41309C12.2406 5.08776 12.2471 5.29101 12.2471 6.99902C12.2471 8.70669 12.2406 8.90949 12.21 9.58398C12.1814 10.208 12.0769 10.5471 11.9893 10.7725C11.8733 11.071 11.7347 11.284 11.5107 11.5078C11.2868 11.7317 11.074 11.8704 10.7754 11.9863C10.5501 12.0743 10.2109 12.1785 9.58691 12.207C8.91229 12.2377 8.70947 12.2441 7.00098 12.2441C5.29203 12.2441 5.08874 12.2377 4.41406 12.207C3.7903 12.1782 3.45128 12.0739 3.22559 11.9863C2.92706 11.8703 2.71417 11.7308 2.49023 11.5068C2.2663 11.2829 2.12699 11.0702 2.01074 10.7715C1.92318 10.5462 1.81943 10.2075 1.79102 9.58398C1.76035 8.90931 1.75391 8.70615 1.75391 6.99707C1.75391 5.28832 1.76036 5.08657 1.79102 4.41211C1.81954 3.78827 1.92316 3.44924 2.01074 3.22363C2.12674 2.92496 2.26623 2.71131 2.49023 2.4873C2.71404 2.26355 2.92726 2.12498 3.22559 2.00879C3.45114 1.92081 3.79032 1.81678 4.41406 1.78809C5.00447 1.76142 5.23395 1.75329 6.42676 1.75195V1.75391ZM7 3.71289C5.18518 3.7132 3.71387 5.1851 3.71387 7C3.71409 8.8149 5.18603 10.2852 7.00098 10.2852C8.81574 10.2849 10.2869 8.81476 10.2871 7C10.2871 5.18491 8.81509 3.71289 7 3.71289ZM10.3389 2.82031C9.95162 2.85939 9.64963 3.18639 9.64941 3.58398C9.64941 4.00799 9.99299 4.35254 10.417 4.35254C10.841 4.35251 11.1846 4.00797 11.1846 3.58398C11.1843 3.1602 10.8408 2.81644 10.417 2.81641L10.3389 2.82031Z" fill="black"/>
<path d="M7.00054 4.86719C8.17869 4.86719 9.1339 5.82226 9.1339 7.00054C9.1339 8.17869 8.17869 9.1339 7.00054 9.1339C5.82226 9.1339 4.86719 8.17869 4.86719 7.00054C4.86719 5.82226 5.82226 4.86719 7.00054 4.86719Z" fill="black"/>
</svg>
