<svg width="12" height="10" viewBox="0 0 12 10" fill="none" xmlns="http://www.w3.org/2000/svg">
<path d="M7.27734 0.312575C7.66338 0.177016 8.31801 0.159833 8.74609 0.278395C8.91397 0.32924 9.23333 0.49891 9.45996 0.651442L9.87109 0.930739L10.3242 0.787185C10.5758 0.710988 10.9112 0.583839 11.0625 0.499099C11.2045 0.423205 11.3308 0.38071 11.332 0.405349C11.332 0.549407 11.0209 1.04141 10.7607 1.31258C10.4083 1.69383 10.5092 1.72791 11.2227 1.47371C11.6505 1.32974 11.659 1.32949 11.5752 1.49031C11.5248 1.57504 11.2643 1.8715 10.9873 2.14265C10.5173 2.60872 10.4922 2.66007 10.4922 3.04988C10.4921 3.65159 10.2072 4.90554 9.92188 5.59187C9.39307 6.87992 8.25913 8.21051 7.12598 8.87996C5.53124 9.82039 3.40784 10.0576 1.62012 9.50691C1.02416 9.32048 0 8.84556 0 8.76082C0.00247959 8.73543 0.312274 8.70187 0.688477 8.69343C1.4773 8.67646 2.26612 8.45614 2.9375 8.06648L3.39062 7.795L2.87109 7.61726C2.1325 7.36306 1.46872 6.77839 1.30078 6.22761C1.25043 6.04969 1.26745 6.04109 1.7373 6.04109L2.22461 6.0323L1.81348 5.83797C1.32666 5.59223 0.881335 5.17668 0.663086 4.75301C0.503605 4.44794 0.302572 3.67658 0.361328 3.61726C0.379228 3.5925 0.555155 3.64347 0.755859 3.71101C1.33457 3.92265 1.40987 3.87151 1.07422 3.5157C0.44476 2.87168 0.25155 1.91359 0.553711 1.00691L0.696289 0.600661L1.25098 1.15144C2.3841 2.26144 3.71851 2.92237 5.24609 3.11726L5.66602 3.16804L5.64062 2.753C5.5651 1.67684 6.22817 0.693915 7.27734 0.312575Z" fill="white"/>
</svg>
